<svg
  xmlns="http://www.w3.org/2000/svg"
  viewBox="0 0 24 24"
  fill="none"
  stroke="currentColor"
  stroke-width="1"
  stroke-linecap="round"
  stroke-linejoin="round"
  stroke-miterlimit="10"
>
	<path d="
	M5,3.5c-2.59375,0-4.5,2.1792827-4.5,7c0,3.84375,2.625,7,4.5,7s3.5-0.96875,3.5-3s-2-3.25-2-4.5s1-1.71875,1-3.5
	S6.65625,3.5,5,3.5z"/>
	<path d="
	M6.6314697,10.5645752C8.7783813,10.8787842,9.5,12.7732544,9.5,15c0,2.4375,0,5.5,0,5.5H11c0,0,0-5,0-7
	c0-1.7369385-1.2593384-4.2254639-4.1009521-4.850769"/>
	<path d="
	M19,3.5c2.59375,0,4.5,2.1792827,4.5,7c0,3.84375-2.625,7-4.5,7s-3.5-0.96875-3.5-3s2-3.25,2-4.5s-1-1.71875-1-3.5
	S17.34375,3.5,19,3.5z"/>
	<path d="
	M17.3685303,10.5645752C15.2216187,10.8787842,14.5,12.7732544,14.5,15c0,2.4375,0,5.5,0,5.5H13c0,0,0-5,0-7
	c0-1.7369385,1.2593384-4.2254639,4.1009521-4.850769"/>
</svg>
