<svg
  xmlns="http://www.w3.org/2000/svg"
  viewBox="0 0 24 24"
  fill="none"
  stroke="currentColor"
  stroke-width="1"
  stroke-linecap="round"
  stroke-linejoin="round"
  stroke-miterlimit="10"
>
  <path d="M12.18375 12.32391L10.14375 7.02047a0.421875 0.421875 0 00-0.7875 0l-2.04 5.30344a0.421875 0.421875 0 01-0.24234 0.24234L1.77047 14.60625a0.421875 0.421875 0 000 0.7875l5.30344 2.04a0.421875 0.421875 0 010.24234 0.24234l2.04 5.30344a0.421875 0.421875 0 000.7875 0l2.04-5.30344a0.421875 0.421875 0 010.24234-0.24234l5.30344-2.04a0.421875 0.421875 0 000-0.7875l-5.30344-2.04a0.421875 0.421875 0 01-0.24234-0.24234zM5.0625 3.1875L4.125 0.75 3.1875 3.1875 0.75 4.125l2.4375 0.9375 0.9375 2.4375 0.9375-2.4375L7.5 4.125l-2.4375-0.9375zM20.00016 5.49984L18.75 2.25l-1.25016 3.24984L14.25 6.75l3.24984 1.25016L18.75 11.25l1.25016-3.24984L23.25 6.75l-3.24984-1.25016z"/>
</svg>
